<svg id="Layer_4" data-name="Layer 4" xmlns="http://www.w3.org/2000/svg" viewBox="0 0 823.43 549.2"><defs><style>.cls-1,.cls-16,.cls-9{font-size:12px;}.cls-1,.cls-16,.cls-19,.cls-9{font-family:Avenir;}.cls-2{letter-spacing:-1px;}.cls-3{font-size:10px;fill:#808184;font-family:Open Sans;font-style:italic;}.cls-10,.cls-11,.cls-12,.cls-13,.cls-14,.cls-17,.cls-18,.cls-4,.cls-5,.cls-8{fill:none;stroke-miterlimit:10;}.cls-10,.cls-11,.cls-12,.cls-13,.cls-14,.cls-17,.cls-4,.cls-5,.cls-8{stroke:#7b7b84;stroke-linecap:round;}.cls-5{stroke-dasharray:0.01 3.98;}.cls-15,.cls-6,.cls-7{opacity:0.83;fill:#72c176;}.cls-6,.cls-7{font-size:14px;font-family:FontAwesome;}.cls-7{white-space:pre;}.cls-8{stroke-dasharray:0.01 3.62;}.cls-9{fill:#231f20;}.cls-10{stroke-dasharray:0.01 3.95;}.cls-11{stroke-dasharray:0.01 4;}.cls-12{stroke-dasharray:0.01 4;}.cls-13{stroke-dasharray:0.01 4.06;}.cls-14{stroke-dasharray:0.01 4.03;}.cls-16{fill:#fff;}.cls-17{stroke-dasharray:0.01 3.96;}.cls-18{stroke:#f1f1f2;stroke-linecap:square;stroke-width:8px;opacity:0.8;}.cls-19{font-size:18px;}</style></defs><title>site-map-stuff</title><text class="cls-1" transform="translate(327.33 35.81)">MAP <tspan class="cls-2" x="30.66" y="0">T</tspan><tspan x="36.44" y="0">AB</tspan></text><text class="cls-1" transform="translate(598.81 35.81)">D<tspan class="cls-2" x="9.11" y="0">AT</tspan><tspan x="22.45" y="0">A </tspan><tspan class="cls-2" x="34.67" y="0">T</tspan><tspan x="40.45" y="0">AB</tspan></text><text class="cls-3" transform="translate(575.72 47.97)">includes sites and media</text><text class="cls-3" transform="translate(321.03 47.97)">a map-based UI</text><text class="cls-3" transform="translate(668.53 403.04)">collections of data and style</text><line class="cls-4" x1="403.8" y1="33.07" x2="403.8" y2="33.07"/><line class="cls-5" x1="407.78" y1="33.07" x2="557.4" y2="33.07"/><line class="cls-4" x1="559.4" y1="33.07" x2="559.4" y2="33.07"/><text x="-2017.31" y="-27.73"/><text class="cls-1" transform="translate(566.77 129.69)">GALLE<tspan x="37.79" y="0">R</tspan><tspan x="44.9" y="0">Y </tspan><tspan x="11.01" y="14.4">VIEW</tspan></text><text class="cls-6" transform="translate(346.77 16.32)"></text><text class="cls-6" transform="translate(720.07 369.1)"></text><text class="cls-6" transform="translate(621.26 16.32)"></text><text class="cls-6" transform="translate(585.84 112.1)"></text><text class="cls-6" transform="translate(420.12 112.1)"></text><text class="cls-6" transform="translate(283.17 369.1)"></text><text class="cls-7" transform="translate(489.87 369.1)">  </text><text class="cls-6" transform="translate(276.42 111.6)"></text><text class="cls-6" transform="translate(651.9 112.18)"></text><text class="cls-1" transform="translate(641 129.69)"><tspan class="cls-2">T</tspan><tspan x="5.78" y="0">ABLE </tspan><tspan x="2.67" y="14.4">VIEW</tspan></text><line class="cls-4" x1="627.26" y1="67.37" x2="627.26" y2="67.37"/><line class="cls-8" x1="627.26" y1="63.75" x2="627.26" y2="58.3"/><line class="cls-4" x1="627.26" y1="56.48" x2="627.26" y2="56.48"/><text class="cls-9" transform="translate(222.65 129.61)">EDIT MAP STYLE <tspan class="cls-2" x="99.32" y="0">T</tspan><tspan x="105.11" y="0">AB</tspan></text><text class="cls-9" transform="translate(364.68 129.61)">ADD/EDIT SITES <tspan class="cls-2" x="96.64" y="0">T</tspan><tspan x="102.43" y="0">AB</tspan></text><line class="cls-4" x1="353.77" y1="69.4" x2="353.77" y2="69.4"/><line class="cls-10" x1="353.77" y1="65.45" x2="353.77" y2="55.54"/><line class="cls-4" x1="353.77" y1="53.55" x2="353.77" y2="53.55"/><polyline class="cls-11" points="283.42 86.8 283.42 70.4 424.12 70.4 424.12 86.8"/><line class="cls-4" x1="283.42" y1="196.7" x2="283.42" y2="196.7"/><line class="cls-12" x1="283.42" y1="192.7" x2="283.42" y2="146.57"/><line class="cls-4" x1="283.42" y1="144.56" x2="283.42" y2="144.56"/><polyline class="cls-11" points="592.84 86.8 592.84 70.4 661.67 70.4 661.67 86.8"/><text x="-2017.31" y="-27.73"/><text x="-2017.31" y="-27.73"/><text class="cls-1" transform="translate(196.78 238.78)">USER 1<tspan x="41.1" y="0">’</tspan><tspan x="43.76" y="0">s </tspan><tspan x="10.99" y="14.4">MAP</tspan></text><text class="cls-1" transform="translate(320.98 238.78)">USER 3<tspan x="41.1" y="0">’</tspan><tspan x="43.76" y="0">s </tspan><tspan x="10.99" y="14.4">MAP</tspan></text><text class="cls-1" transform="translate(258.88 238.78)">USER 2<tspan x="41.1" y="0">’</tspan><tspan x="43.76" y="0">s </tspan><tspan x="10.99" y="14.4">MAP</tspan></text><polyline class="cls-11" points="221.32 196.7 221.32 172.84 345.53 172.84 345.53 196.7"/><text class="cls-1" transform="translate(259.12 387.26)">SITES <tspan class="cls-2" x="34.88" y="0">T</tspan><tspan x="40.67" y="0">AB</tspan></text><text class="cls-1" transform="translate(474.71 387.26)">MEDIA <tspan class="cls-2" x="43.1" y="0">T</tspan><tspan x="48.89" y="0">AB</tspan></text><line class="cls-4" x1="327.99" y1="384.52" x2="327.99" y2="384.52"/><line class="cls-13" x1="332.05" y1="384.52" x2="464.18" y2="384.52"/><line class="cls-4" x1="466.22" y1="384.52" x2="466.22" y2="384.52"/><text class="cls-1" transform="translate(697.19 387.26)">MAPS <tspan class="cls-2" x="37.55" y="0">T</tspan><tspan x="43.33" y="0">AB</tspan></text><line class="cls-4" x1="549.98" y1="384.52" x2="549.98" y2="384.52"/><line class="cls-14" x1="554.01" y1="384.52" x2="661.09" y2="384.52"/><line class="cls-4" x1="663.11" y1="384.52" x2="663.11" y2="384.52"/><text x="-2017.31" y="-27.73"/><circle class="cls-15" cx="221.32" cy="213.2" r="9.28"/><circle class="cls-15" cx="283.42" cy="213.62" r="9.28"/><circle class="cls-15" cx="345.53" cy="213.62" r="9.28"/><text class="cls-16" transform="translate(217.77 217.61)">1</text><text class="cls-16" transform="translate(279.87 217.61)">2</text><text class="cls-16" transform="translate(341.97 217.61)">3</text><text x="-2017.31" y="-27.73"/><line class="cls-4" x1="727.07" y1="451.97" x2="727.07" y2="451.97"/><line class="cls-17" x1="727.07" y1="448.01" x2="727.07" y2="414.31"/><line class="cls-4" x1="727.07" y1="412.32" x2="727.07" y2="412.32"/><text class="cls-1" transform="translate(640.43 494.04)">USER 1<tspan x="41.1" y="0">’</tspan><tspan x="43.76" y="0">s </tspan><tspan x="10.99" y="14.4">MAP</tspan></text><text class="cls-1" transform="translate(764.63 494.04)">USER 3<tspan x="41.1" y="0">’</tspan><tspan x="43.76" y="0">s </tspan><tspan x="10.99" y="14.4">MAP</tspan></text><text class="cls-1" transform="translate(702.53 494.04)">USER 2<tspan x="41.1" y="0">’</tspan><tspan x="43.76" y="0">s </tspan><tspan x="10.99" y="14.4">MAP</tspan></text><polyline class="cls-11" points="664.97 451.97 664.97 428.1 789.18 428.1 789.18 451.97"/><text x="-2017.31" y="-27.73"/><circle class="cls-15" cx="664.97" cy="468.47" r="9.28"/><circle class="cls-15" cx="727.07" cy="468.89" r="9.28"/><circle class="cls-15" cx="789.18" cy="468.89" r="9.28"/><text class="cls-16" transform="translate(661.42 472.87)">1</text><text class="cls-16" transform="translate(723.52 472.87)">2</text><text class="cls-16" transform="translate(785.62 472.87)">3</text><text class="cls-6" transform="translate(564.96 475.24)"></text><text class="cls-6" transform="translate(441.23 475.16)"></text><text class="cls-6" transform="translate(502.86 475.24)"></text><text x="-2017.31" y="-27.73"/><line class="cls-4" x1="509.86" y1="451.97" x2="509.86" y2="451.97"/><line class="cls-12" x1="509.86" y1="447.97" x2="509.86" y2="401.84"/><line class="cls-4" x1="509.86" y1="399.83" x2="509.86" y2="399.83"/><text class="cls-1" transform="translate(421.53 494.04)">GALLE<tspan x="37.79" y="0">R</tspan><tspan x="44.9" y="0">Y </tspan><tspan x="11.01" y="14.4">VIEW</tspan></text><text class="cls-1" transform="translate(558.41 494.04)">MAP <tspan x="-1.67" y="14.4">VIEW</tspan></text><text class="cls-1" transform="translate(491.97 494.04)"><tspan class="cls-2">T</tspan><tspan x="5.78" y="0">ABLE </tspan><tspan x="2.67" y="14.4">VIEW</tspan></text><polyline class="cls-11" points="447.76 451.97 447.76 428.1 571.96 428.1 571.96 451.97"/><text x="-2017.31" y="-27.73"/><text class="cls-6" transform="translate(343.27 475.24)"></text><text class="cls-6" transform="translate(219.54 475.16)"></text><text class="cls-6" transform="translate(281.17 475.24)"></text><text x="-2017.31" y="-27.73"/><line class="cls-4" x1="288.17" y1="451.97" x2="288.17" y2="451.97"/><line class="cls-12" x1="288.17" y1="447.97" x2="288.17" y2="401.84"/><line class="cls-4" x1="288.17" y1="399.83" x2="288.17" y2="399.83"/><text class="cls-1" transform="translate(199.84 494.04)">GALLE<tspan x="37.79" y="0">R</tspan><tspan x="44.9" y="0">Y </tspan><tspan x="11.01" y="14.4">VIEW</tspan></text><text class="cls-1" transform="translate(336.72 494.04)">MAP <tspan x="-1.67" y="14.4">VIEW</tspan></text><text class="cls-1" transform="translate(270.28 494.04)"><tspan class="cls-2">T</tspan><tspan x="5.78" y="0">ABLE </tspan><tspan x="2.67" y="14.4">VIEW</tspan></text><polyline class="cls-11" points="226.07 451.97 226.07 428.1 350.27 428.1 350.27 451.97"/><text x="-2017.31" y="-27.73"/><text x="-2017.31" y="-27.73"/><text x="-2017.31" y="-27.73"/><line class="cls-18" x1="169.5" y1="253.7" x2="169.5" y2="4"/><text class="cls-19" transform="translate(46.35 17.61)">Site Map V1</text><line class="cls-18" x1="169.5" y1="508.97" x2="169.5" y2="352.5"/><text class="cls-19" transform="translate(46.35 366.11)">Site Map V2</text></svg>